<mxfile host="app.diagrams.net" modified="2024-07-01T10:18:00.529Z" agent="Mozilla/5.0 (Windows NT 10.0; Win64; x64) AppleWebKit/537.36 (KHTML, like Gecko) Chrome/126.0.0.0 Safari/537.36" etag="SgT63QSnRfExsonF9h6G" version="24.6.4" type="github">
  <diagram name="Page-1" id="avv3zr6gYFJ-e1_Ntfxp">
    <mxGraphModel dx="1972" dy="1272" grid="1" gridSize="10" guides="1" tooltips="1" connect="1" arrows="1" fold="1" page="0" pageScale="1" pageWidth="1654" pageHeight="1169" math="0" shadow="0">
      <root>
        <mxCell id="0" />
        <mxCell id="1" parent="0" />
        <mxCell id="WBxBChpMxb5zs4vPhDht-1" value="Utilisateur" style="swimlane;whiteSpace=wrap;html=1;fontFamily=Times New Roman;" vertex="1" parent="1">
          <mxGeometry x="-360" y="-184" width="360" height="824" as="geometry" />
        </mxCell>
        <mxCell id="WBxBChpMxb5zs4vPhDht-4" value="" style="ellipse;whiteSpace=wrap;html=1;aspect=fixed;fontFamily=Times New Roman;strokeColor=#000000;fillColor=#000000;" vertex="1" parent="WBxBChpMxb5zs4vPhDht-1">
          <mxGeometry x="29" y="54" width="19" height="19" as="geometry" />
        </mxCell>
        <mxCell id="WBxBChpMxb5zs4vPhDht-5" value="Choisir la Mission à laquelle doit être affectée les MOJ" style="rounded=1;whiteSpace=wrap;html=1;fontFamily=Times New Roman;" vertex="1" parent="WBxBChpMxb5zs4vPhDht-1">
          <mxGeometry x="80" y="47" width="160" height="36" as="geometry" />
        </mxCell>
        <mxCell id="WBxBChpMxb5zs4vPhDht-6" value="" style="endArrow=classicThin;html=1;rounded=0;fontFamily=Times New Roman;fontSize=16;startSize=14;endSize=14;sourcePerimeterSpacing=8;targetPerimeterSpacing=8;curved=1;exitX=1;exitY=0.5;exitDx=0;exitDy=0;endFill=1;" edge="1" parent="WBxBChpMxb5zs4vPhDht-1" source="WBxBChpMxb5zs4vPhDht-4">
          <mxGeometry width="50" height="50" relative="1" as="geometry">
            <mxPoint x="380" y="184" as="sourcePoint" />
            <mxPoint x="80" y="64" as="targetPoint" />
          </mxGeometry>
        </mxCell>
        <mxCell id="WBxBChpMxb5zs4vPhDht-24" value="Rechercher &lt;span style=&quot;background-color: initial;&quot;&gt;&amp;nbsp;MOJ&lt;/span&gt;" style="rounded=1;whiteSpace=wrap;html=1;fontFamily=Times New Roman;" vertex="1" parent="WBxBChpMxb5zs4vPhDht-1">
          <mxGeometry x="79.5" y="224" width="201" height="40" as="geometry" />
        </mxCell>
        <mxCell id="WBxBChpMxb5zs4vPhDht-25" value="Remplir le numéro de CNI" style="rounded=1;whiteSpace=wrap;html=1;fontFamily=Times New Roman;" vertex="1" parent="WBxBChpMxb5zs4vPhDht-1">
          <mxGeometry x="50" y="471" width="110" height="40" as="geometry" />
        </mxCell>
        <mxCell id="WBxBChpMxb5zs4vPhDht-26" value="Choisir la qualification" style="rounded=1;whiteSpace=wrap;html=1;fontFamily=Times New Roman;" vertex="1" parent="WBxBChpMxb5zs4vPhDht-1">
          <mxGeometry x="190" y="472" width="110" height="40" as="geometry" />
        </mxCell>
        <mxCell id="WBxBChpMxb5zs4vPhDht-27" value="" style="rounded=1;whiteSpace=wrap;html=1;fontFamily=Times New Roman;fillColor=#000000;" vertex="1" parent="WBxBChpMxb5zs4vPhDht-1">
          <mxGeometry x="109" y="290" width="140" height="3" as="geometry" />
        </mxCell>
        <mxCell id="WBxBChpMxb5zs4vPhDht-28" value="" style="endArrow=classicThin;html=1;rounded=0;fontFamily=Times New Roman;fontSize=16;startSize=14;endSize=14;sourcePerimeterSpacing=8;targetPerimeterSpacing=8;endFill=1;edgeStyle=orthogonalEdgeStyle;exitX=0.171;exitY=1.086;exitDx=0;exitDy=0;exitPerimeter=0;" edge="1" parent="WBxBChpMxb5zs4vPhDht-1">
          <mxGeometry width="50" height="50" relative="1" as="geometry">
            <mxPoint x="126.01999999999998" y="448.5160000000001" as="sourcePoint" />
            <mxPoint x="126" y="471" as="targetPoint" />
            <Array as="points" />
          </mxGeometry>
        </mxCell>
        <mxCell id="WBxBChpMxb5zs4vPhDht-29" value="" style="endArrow=classicThin;html=1;rounded=0;fontFamily=Times New Roman;fontSize=16;startSize=14;endSize=14;sourcePerimeterSpacing=8;targetPerimeterSpacing=8;endFill=1;edgeStyle=orthogonalEdgeStyle;exitX=0.5;exitY=1;exitDx=0;exitDy=0;" edge="1" parent="WBxBChpMxb5zs4vPhDht-1">
          <mxGeometry width="50" height="50" relative="1" as="geometry">
            <mxPoint x="220" y="264.0000000000002" as="sourcePoint" />
            <mxPoint x="180" y="294" as="targetPoint" />
            <Array as="points">
              <mxPoint x="180" y="266" />
              <mxPoint x="180" y="266" />
            </Array>
          </mxGeometry>
        </mxCell>
        <mxCell id="WBxBChpMxb5zs4vPhDht-30" value="" style="endArrow=classicThin;html=1;rounded=0;fontFamily=Times New Roman;fontSize=16;startSize=14;endSize=14;sourcePerimeterSpacing=8;targetPerimeterSpacing=8;endFill=1;edgeStyle=orthogonalEdgeStyle;exitX=0.838;exitY=1.032;exitDx=0;exitDy=0;exitPerimeter=0;" edge="1" parent="WBxBChpMxb5zs4vPhDht-1">
          <mxGeometry width="50" height="50" relative="1" as="geometry">
            <mxPoint x="200.05999999999995" y="449.192" as="sourcePoint" />
            <mxPoint x="200" y="472" as="targetPoint" />
            <Array as="points">
              <mxPoint x="200" y="452" />
            </Array>
          </mxGeometry>
        </mxCell>
        <mxCell id="WBxBChpMxb5zs4vPhDht-34" value="" style="endArrow=classicThin;html=1;rounded=0;fontFamily=Times New Roman;fontSize=16;startSize=14;endSize=14;sourcePerimeterSpacing=8;targetPerimeterSpacing=8;endFill=1;edgeStyle=orthogonalEdgeStyle;entryX=0.734;entryY=0.004;entryDx=0;entryDy=0;entryPerimeter=0;exitX=0.078;exitY=0.83;exitDx=0;exitDy=0;exitPerimeter=0;" edge="1" parent="WBxBChpMxb5zs4vPhDht-1" source="WBxBChpMxb5zs4vPhDht-27" target="WBxBChpMxb5zs4vPhDht-37">
          <mxGeometry width="50" height="50" relative="1" as="geometry">
            <mxPoint x="120" y="294" as="sourcePoint" />
            <mxPoint x="80" y="320" as="targetPoint" />
            <Array as="points">
              <mxPoint x="120" y="304" />
              <mxPoint x="120" y="304" />
            </Array>
          </mxGeometry>
        </mxCell>
        <mxCell id="WBxBChpMxb5zs4vPhDht-35" value="" style="endArrow=classicThin;html=1;rounded=0;fontFamily=Times New Roman;fontSize=16;startSize=14;endSize=14;sourcePerimeterSpacing=8;targetPerimeterSpacing=8;endFill=1;edgeStyle=orthogonalEdgeStyle;exitX=0.939;exitY=0.5;exitDx=0;exitDy=0;exitPerimeter=0;entryX=0.277;entryY=0.027;entryDx=0;entryDy=0;entryPerimeter=0;" edge="1" parent="WBxBChpMxb5zs4vPhDht-1" source="WBxBChpMxb5zs4vPhDht-27" target="WBxBChpMxb5zs4vPhDht-38">
          <mxGeometry width="50" height="50" relative="1" as="geometry">
            <mxPoint x="199.51999999999998" y="299.9960000000001" as="sourcePoint" />
            <mxPoint x="200" y="320" as="targetPoint" />
            <Array as="points">
              <mxPoint x="240" y="294" />
              <mxPoint x="240" y="294" />
            </Array>
          </mxGeometry>
        </mxCell>
        <mxCell id="WBxBChpMxb5zs4vPhDht-37" value="Cliquer sur l&#39;option de filtre" style="rounded=1;whiteSpace=wrap;html=1;fontFamily=Times New Roman;" vertex="1" parent="WBxBChpMxb5zs4vPhDht-1">
          <mxGeometry x="39" y="320" width="110" height="40" as="geometry" />
        </mxCell>
        <mxCell id="WBxBChpMxb5zs4vPhDht-38" value="Remplir la barre de cherche" style="rounded=1;whiteSpace=wrap;html=1;fontFamily=Times New Roman;" vertex="1" parent="WBxBChpMxb5zs4vPhDht-1">
          <mxGeometry x="210" y="320" width="110" height="40" as="geometry" />
        </mxCell>
        <mxCell id="WBxBChpMxb5zs4vPhDht-86" value="Choisir l&#39;entête" style="rounded=1;whiteSpace=wrap;html=1;fontFamily=Times New Roman;" vertex="1" parent="WBxBChpMxb5zs4vPhDht-1">
          <mxGeometry x="10" y="114" width="80" height="36" as="geometry" />
        </mxCell>
        <mxCell id="WBxBChpMxb5zs4vPhDht-87" value="Choisir&amp;nbsp;&lt;div&gt;Serval&lt;/div&gt;" style="rounded=1;whiteSpace=wrap;html=1;fontFamily=Times New Roman;" vertex="1" parent="WBxBChpMxb5zs4vPhDht-1">
          <mxGeometry x="100" y="114" width="80" height="36" as="geometry" />
        </mxCell>
        <mxCell id="WBxBChpMxb5zs4vPhDht-88" value="Choisir&lt;div&gt;Spot&lt;/div&gt;" style="rounded=1;whiteSpace=wrap;html=1;fontFamily=Times New Roman;" vertex="1" parent="WBxBChpMxb5zs4vPhDht-1">
          <mxGeometry x="190" y="114" width="70" height="36" as="geometry" />
        </mxCell>
        <mxCell id="WBxBChpMxb5zs4vPhDht-89" value="Choisir&lt;div&gt;MOJ&lt;/div&gt;" style="rounded=1;whiteSpace=wrap;html=1;fontFamily=Times New Roman;" vertex="1" parent="WBxBChpMxb5zs4vPhDht-1">
          <mxGeometry x="270" y="114" width="80" height="36" as="geometry" />
        </mxCell>
        <mxCell id="WBxBChpMxb5zs4vPhDht-91" value="" style="endArrow=classicThin;html=1;rounded=0;fontFamily=Times New Roman;fontSize=16;startSize=14;endSize=14;sourcePerimeterSpacing=8;targetPerimeterSpacing=8;exitX=0.5;exitY=1;exitDx=0;exitDy=0;endFill=1;edgeStyle=orthogonalEdgeStyle;entryX=0.381;entryY=0.212;entryDx=0;entryDy=0;entryPerimeter=0;" edge="1" parent="WBxBChpMxb5zs4vPhDht-1" source="WBxBChpMxb5zs4vPhDht-87" target="WBxBChpMxb5zs4vPhDht-95">
          <mxGeometry width="50" height="50" relative="1" as="geometry">
            <mxPoint x="470" y="554" as="sourcePoint" />
            <mxPoint x="180" y="174" as="targetPoint" />
            <Array as="points">
              <mxPoint x="140" y="174" />
              <mxPoint x="141" y="174" />
            </Array>
          </mxGeometry>
        </mxCell>
        <mxCell id="WBxBChpMxb5zs4vPhDht-93" value="" style="endArrow=classicThin;html=1;rounded=0;fontFamily=Times New Roman;fontSize=16;startSize=14;endSize=14;sourcePerimeterSpacing=8;targetPerimeterSpacing=8;exitX=0.5;exitY=1;exitDx=0;exitDy=0;entryX=0.916;entryY=0.01;entryDx=0;entryDy=0;edgeStyle=orthogonalEdgeStyle;endFill=1;entryPerimeter=0;" edge="1" parent="WBxBChpMxb5zs4vPhDht-1" source="WBxBChpMxb5zs4vPhDht-89" target="WBxBChpMxb5zs4vPhDht-95">
          <mxGeometry width="50" height="50" relative="1" as="geometry">
            <mxPoint x="300" y="394" as="sourcePoint" />
            <mxPoint x="193" y="184.00000000000023" as="targetPoint" />
          </mxGeometry>
        </mxCell>
        <mxCell id="WBxBChpMxb5zs4vPhDht-94" value="" style="endArrow=classicThin;html=1;rounded=0;fontFamily=Times New Roman;fontSize=16;startSize=14;endSize=14;sourcePerimeterSpacing=8;targetPerimeterSpacing=8;exitX=0.373;exitY=0.985;exitDx=0;exitDy=0;exitPerimeter=0;entryX=0.063;entryY=0.01;entryDx=0;entryDy=0;edgeStyle=orthogonalEdgeStyle;endFill=1;entryPerimeter=0;" edge="1" parent="WBxBChpMxb5zs4vPhDht-1" source="WBxBChpMxb5zs4vPhDht-86" target="WBxBChpMxb5zs4vPhDht-95">
          <mxGeometry width="50" height="50" relative="1" as="geometry">
            <mxPoint x="300" y="394" as="sourcePoint" />
            <mxPoint x="177" y="184.00000000000023" as="targetPoint" />
          </mxGeometry>
        </mxCell>
        <mxCell id="WBxBChpMxb5zs4vPhDht-95" value="" style="rounded=1;whiteSpace=wrap;html=1;fontFamily=Times New Roman;fillColor=#000000;" vertex="1" parent="WBxBChpMxb5zs4vPhDht-1">
          <mxGeometry x="20" y="191" width="317" height="3" as="geometry" />
        </mxCell>
        <mxCell id="WBxBChpMxb5zs4vPhDht-92" value="" style="endArrow=classicThin;html=1;rounded=0;fontFamily=Times New Roman;fontSize=16;startSize=14;endSize=14;sourcePerimeterSpacing=8;targetPerimeterSpacing=8;exitX=0.5;exitY=1;exitDx=0;exitDy=0;endFill=1;edgeStyle=orthogonalEdgeStyle;entryX=0.629;entryY=-0.394;entryDx=0;entryDy=0;entryPerimeter=0;" edge="1" parent="WBxBChpMxb5zs4vPhDht-1" source="WBxBChpMxb5zs4vPhDht-88" target="WBxBChpMxb5zs4vPhDht-95">
          <mxGeometry width="50" height="50" relative="1" as="geometry">
            <mxPoint x="150" y="160" as="sourcePoint" />
            <mxPoint x="190" y="174" as="targetPoint" />
            <Array as="points">
              <mxPoint x="220" y="150" />
              <mxPoint x="220" y="174" />
              <mxPoint x="219" y="174" />
            </Array>
          </mxGeometry>
        </mxCell>
        <mxCell id="WBxBChpMxb5zs4vPhDht-97" value="" style="endArrow=classicThin;html=1;rounded=0;fontFamily=Times New Roman;fontSize=16;startSize=14;endSize=14;sourcePerimeterSpacing=8;targetPerimeterSpacing=8;curved=1;exitX=0.5;exitY=1;exitDx=0;exitDy=0;endFill=1;entryX=0.492;entryY=-0.01;entryDx=0;entryDy=0;entryPerimeter=0;" edge="1" parent="WBxBChpMxb5zs4vPhDht-1" source="WBxBChpMxb5zs4vPhDht-95" target="WBxBChpMxb5zs4vPhDht-24">
          <mxGeometry width="50" height="50" relative="1" as="geometry">
            <mxPoint x="280" y="234" as="sourcePoint" />
            <mxPoint x="180" y="224" as="targetPoint" />
          </mxGeometry>
        </mxCell>
        <mxCell id="WBxBChpMxb5zs4vPhDht-121" value="Cliquer sur le bouton / icone d&#39;ajout" style="rounded=1;whiteSpace=wrap;html=1;fontFamily=Times New Roman;" vertex="1" parent="WBxBChpMxb5zs4vPhDht-1">
          <mxGeometry x="80" y="584" width="201" height="47" as="geometry" />
        </mxCell>
        <mxCell id="WBxBChpMxb5zs4vPhDht-124" value="Confirmer l&#39;ajout" style="rounded=1;whiteSpace=wrap;html=1;fontFamily=Times New Roman;" vertex="1" parent="WBxBChpMxb5zs4vPhDht-1">
          <mxGeometry x="78" y="666" width="201" height="47" as="geometry" />
        </mxCell>
        <mxCell id="WBxBChpMxb5zs4vPhDht-2" value="Vue Next JS" style="swimlane;whiteSpace=wrap;html=1;fontFamily=Times New Roman;" vertex="1" parent="1">
          <mxGeometry x="80" y="-183" width="360" height="823" as="geometry" />
        </mxCell>
        <mxCell id="WBxBChpMxb5zs4vPhDht-18" value="Afficher la page permettant d&#39;ajouter une MOJ à la mission avec des informations sur celle-ci" style="rounded=1;whiteSpace=wrap;html=1;fontFamily=Times New Roman;" vertex="1" parent="WBxBChpMxb5zs4vPhDht-2">
          <mxGeometry x="52" y="119" width="280" height="47" as="geometry" />
        </mxCell>
        <mxCell id="WBxBChpMxb5zs4vPhDht-32" value="Ouvrir l&#39;Offcanvas de filtre d&#39;une MOJ" style="rounded=1;whiteSpace=wrap;html=1;fontFamily=Times New Roman;" vertex="1" parent="WBxBChpMxb5zs4vPhDht-2">
          <mxGeometry x="79" y="377" width="201" height="47" as="geometry" />
        </mxCell>
        <mxCell id="WBxBChpMxb5zs4vPhDht-58" value="Afficher un tableau avec des MOJ" style="rounded=1;whiteSpace=wrap;html=1;fontFamily=Times New Roman;" vertex="1" parent="WBxBChpMxb5zs4vPhDht-2">
          <mxGeometry x="52" y="280" width="120" height="38" as="geometry" />
        </mxCell>
        <mxCell id="WBxBChpMxb5zs4vPhDht-59" value="Afficher un tableau vide" style="rounded=1;whiteSpace=wrap;html=1;fontFamily=Times New Roman;" vertex="1" parent="WBxBChpMxb5zs4vPhDht-2">
          <mxGeometry x="212" y="280" width="120" height="38" as="geometry" />
        </mxCell>
        <mxCell id="WBxBChpMxb5zs4vPhDht-61" value="" style="rhombus;whiteSpace=wrap;html=1;fontFamily=Times New Roman;" vertex="1" parent="WBxBChpMxb5zs4vPhDht-2">
          <mxGeometry x="177" y="238" width="30" height="30" as="geometry" />
        </mxCell>
        <mxCell id="WBxBChpMxb5zs4vPhDht-63" value="" style="endArrow=classicThin;html=1;rounded=0;fontFamily=Times New Roman;fontSize=16;startSize=14;endSize=14;sourcePerimeterSpacing=8;targetPerimeterSpacing=8;endFill=1;edgeStyle=orthogonalEdgeStyle;exitX=0.5;exitY=1;exitDx=0;exitDy=0;entryX=0.5;entryY=0;entryDx=0;entryDy=0;" edge="1" parent="WBxBChpMxb5zs4vPhDht-2" source="WBxBChpMxb5zs4vPhDht-18" target="WBxBChpMxb5zs4vPhDht-61">
          <mxGeometry width="50" height="50" relative="1" as="geometry">
            <mxPoint x="152" y="212" as="sourcePoint" />
            <mxPoint x="193" y="233" as="targetPoint" />
            <Array as="points" />
          </mxGeometry>
        </mxCell>
        <mxCell id="WBxBChpMxb5zs4vPhDht-62" value="" style="endArrow=classicThin;html=1;rounded=0;fontFamily=Times New Roman;fontSize=16;startSize=14;endSize=14;sourcePerimeterSpacing=8;targetPerimeterSpacing=8;exitX=1;exitY=0.5;exitDx=0;exitDy=0;entryX=0.75;entryY=0;entryDx=0;entryDy=0;edgeStyle=orthogonalEdgeStyle;endFill=1;" edge="1" parent="WBxBChpMxb5zs4vPhDht-2" source="WBxBChpMxb5zs4vPhDht-61" target="WBxBChpMxb5zs4vPhDht-59">
          <mxGeometry width="50" height="50" relative="1" as="geometry">
            <mxPoint x="21" y="682" as="sourcePoint" />
            <mxPoint x="71" y="632" as="targetPoint" />
          </mxGeometry>
        </mxCell>
        <mxCell id="WBxBChpMxb5zs4vPhDht-64" value="" style="endArrow=classicThin;html=1;rounded=0;fontFamily=Times New Roman;fontSize=16;startSize=14;endSize=14;sourcePerimeterSpacing=8;targetPerimeterSpacing=8;exitX=0;exitY=0.5;exitDx=0;exitDy=0;entryX=0.175;entryY=-0.053;entryDx=0;entryDy=0;entryPerimeter=0;edgeStyle=orthogonalEdgeStyle;endFill=1;" edge="1" parent="WBxBChpMxb5zs4vPhDht-2" source="WBxBChpMxb5zs4vPhDht-61" target="WBxBChpMxb5zs4vPhDht-58">
          <mxGeometry width="50" height="50" relative="1" as="geometry">
            <mxPoint x="-299" y="612" as="sourcePoint" />
            <mxPoint x="-249" y="562" as="targetPoint" />
          </mxGeometry>
        </mxCell>
        <mxCell id="WBxBChpMxb5zs4vPhDht-65" value="Afficher le resultat du filtre" style="rounded=1;whiteSpace=wrap;html=1;fontFamily=Times New Roman;" vertex="1" parent="WBxBChpMxb5zs4vPhDht-2">
          <mxGeometry x="91.5" y="523" width="201" height="47" as="geometry" />
        </mxCell>
        <mxCell id="WBxBChpMxb5zs4vPhDht-120" value="" style="endArrow=classic;html=1;rounded=0;fontFamily=Times New Roman;fontSize=16;startSize=14;endSize=14;sourcePerimeterSpacing=8;targetPerimeterSpacing=8;curved=1;exitX=0.341;exitY=1.064;exitDx=0;exitDy=0;exitPerimeter=0;entryX=0.406;entryY=-0.043;entryDx=0;entryDy=0;entryPerimeter=0;" edge="1" parent="WBxBChpMxb5zs4vPhDht-2" source="WBxBChpMxb5zs4vPhDht-65" target="WBxBChpMxb5zs4vPhDht-122">
          <mxGeometry width="50" height="50" relative="1" as="geometry">
            <mxPoint x="140" y="623" as="sourcePoint" />
            <mxPoint x="190" y="573" as="targetPoint" />
          </mxGeometry>
        </mxCell>
        <mxCell id="WBxBChpMxb5zs4vPhDht-122" value="Ouvrir le modal de confirmation de l&#39;ajout" style="rounded=1;whiteSpace=wrap;html=1;fontFamily=Times New Roman;" vertex="1" parent="WBxBChpMxb5zs4vPhDht-2">
          <mxGeometry x="79.5" y="630" width="201" height="47" as="geometry" />
        </mxCell>
        <mxCell id="WBxBChpMxb5zs4vPhDht-127" value="Toast de confirmation d&#39;ajout" style="rounded=1;whiteSpace=wrap;html=1;fontFamily=Times New Roman;" vertex="1" parent="WBxBChpMxb5zs4vPhDht-2">
          <mxGeometry x="79" y="701" width="201" height="47" as="geometry" />
        </mxCell>
        <mxCell id="WBxBChpMxb5zs4vPhDht-118" value="" style="ellipse;whiteSpace=wrap;html=1;aspect=fixed;fontFamily=Times New Roman;fillColor=none;" vertex="1" parent="WBxBChpMxb5zs4vPhDht-2">
          <mxGeometry x="304" y="765" width="33" height="33" as="geometry" />
        </mxCell>
        <mxCell id="WBxBChpMxb5zs4vPhDht-119" value="" style="ellipse;whiteSpace=wrap;html=1;fontFamily=Times New Roman;fillColor=#000000;" vertex="1" parent="WBxBChpMxb5zs4vPhDht-2">
          <mxGeometry x="310" y="771" width="21" height="21" as="geometry" />
        </mxCell>
        <mxCell id="WBxBChpMxb5zs4vPhDht-128" value="" style="endArrow=classicThin;html=1;rounded=0;fontFamily=Times New Roman;fontSize=16;startSize=14;endSize=14;sourcePerimeterSpacing=8;targetPerimeterSpacing=8;exitX=0.609;exitY=1.021;exitDx=0;exitDy=0;entryX=0;entryY=0.5;entryDx=0;entryDy=0;edgeStyle=orthogonalEdgeStyle;exitPerimeter=0;endFill=1;" edge="1" parent="WBxBChpMxb5zs4vPhDht-2" source="WBxBChpMxb5zs4vPhDht-127" target="WBxBChpMxb5zs4vPhDht-118">
          <mxGeometry width="50" height="50" relative="1" as="geometry">
            <mxPoint x="30" y="503" as="sourcePoint" />
            <mxPoint x="80" y="453" as="targetPoint" />
          </mxGeometry>
        </mxCell>
        <mxCell id="WBxBChpMxb5zs4vPhDht-3" value="API&amp;nbsp;" style="swimlane;whiteSpace=wrap;html=1;fontFamily=Times New Roman;gradientColor=none;" vertex="1" parent="1">
          <mxGeometry x="520" y="-182" width="360" height="822" as="geometry" />
        </mxCell>
        <mxCell id="WBxBChpMxb5zs4vPhDht-10" value="Retourner les données sur la mission choisie" style="rounded=1;whiteSpace=wrap;html=1;fontFamily=Times New Roman;" vertex="1" parent="WBxBChpMxb5zs4vPhDht-3">
          <mxGeometry x="39.5" y="62" width="280.5" height="40" as="geometry" />
        </mxCell>
        <mxCell id="WBxBChpMxb5zs4vPhDht-11" value="Retourner les données sur les MOJ affectés à la mission&amp;nbsp;" style="rounded=1;whiteSpace=wrap;html=1;fontFamily=Times New Roman;" vertex="1" parent="WBxBChpMxb5zs4vPhDht-3">
          <mxGeometry x="39.5" y="123" width="280.5" height="40" as="geometry" />
        </mxCell>
        <mxCell id="WBxBChpMxb5zs4vPhDht-49" value="Retourne les données des MOJ trouvés en fonction des données reçus" style="rounded=1;whiteSpace=wrap;html=1;fontFamily=Times New Roman;" vertex="1" parent="WBxBChpMxb5zs4vPhDht-3">
          <mxGeometry x="40" y="495" width="280" height="38" as="geometry" />
        </mxCell>
        <mxCell id="WBxBChpMxb5zs4vPhDht-50" value="&lt;font color=&quot;#ff0000&quot;&gt;Ne retourner aucune donnée&lt;/font&gt;" style="rounded=1;whiteSpace=wrap;html=1;fontFamily=Times New Roman;strokeColor=#FF3333;" vertex="1" parent="WBxBChpMxb5zs4vPhDht-3">
          <mxGeometry x="196" y="603" width="120" height="38" as="geometry" />
        </mxCell>
        <mxCell id="WBxBChpMxb5zs4vPhDht-52" value="" style="rhombus;whiteSpace=wrap;html=1;fontFamily=Times New Roman;" vertex="1" parent="WBxBChpMxb5zs4vPhDht-3">
          <mxGeometry x="166" y="201" width="30" height="30" as="geometry" />
        </mxCell>
        <mxCell id="WBxBChpMxb5zs4vPhDht-54" value="Retournée des données" style="rounded=1;whiteSpace=wrap;html=1;fontFamily=Times New Roman;" vertex="1" parent="WBxBChpMxb5zs4vPhDht-3">
          <mxGeometry x="40" y="243" width="120" height="38" as="geometry" />
        </mxCell>
        <mxCell id="WBxBChpMxb5zs4vPhDht-55" value="" style="endArrow=classicThin;html=1;rounded=0;fontFamily=Times New Roman;fontSize=16;startSize=14;endSize=14;sourcePerimeterSpacing=8;targetPerimeterSpacing=8;edgeStyle=orthogonalEdgeStyle;exitX=1;exitY=0.5;exitDx=0;exitDy=0;endFill=1;strokeColor=default;" edge="1" parent="WBxBChpMxb5zs4vPhDht-3" source="WBxBChpMxb5zs4vPhDht-52">
          <mxGeometry width="50" height="50" relative="1" as="geometry">
            <mxPoint x="156" y="202" as="sourcePoint" />
            <mxPoint x="260" y="242" as="targetPoint" />
            <Array as="points">
              <mxPoint x="260" y="216" />
            </Array>
          </mxGeometry>
        </mxCell>
        <mxCell id="WBxBChpMxb5zs4vPhDht-132" value="&lt;font style=&quot;font-size: 12px;&quot;&gt;Aucune Moj&amp;nbsp;&lt;/font&gt;&lt;div style=&quot;&quot;&gt;&lt;font style=&quot;font-size: 12px;&quot;&gt;affecté à la mission&lt;/font&gt;&lt;/div&gt;" style="edgeLabel;html=1;align=left;verticalAlign=middle;resizable=0;points=[];fontSize=16;fontFamily=Times New Roman;labelBackgroundColor=none;" vertex="1" connectable="0" parent="WBxBChpMxb5zs4vPhDht-55">
          <mxGeometry x="-0.1778" y="-1" relative="1" as="geometry">
            <mxPoint x="-33" y="-25" as="offset" />
          </mxGeometry>
        </mxCell>
        <mxCell id="WBxBChpMxb5zs4vPhDht-68" value="Retourner les données trouvés" style="rounded=1;whiteSpace=wrap;html=1;fontFamily=Times New Roman;" vertex="1" parent="WBxBChpMxb5zs4vPhDht-3">
          <mxGeometry x="39" y="603" width="120" height="38" as="geometry" />
        </mxCell>
        <mxCell id="WBxBChpMxb5zs4vPhDht-69" value="Ne retourner aucune donnée" style="rounded=1;whiteSpace=wrap;html=1;fontFamily=Times New Roman;strokeColor=#000000;" vertex="1" parent="WBxBChpMxb5zs4vPhDht-3">
          <mxGeometry x="200" y="243" width="120" height="38" as="geometry" />
        </mxCell>
        <mxCell id="WBxBChpMxb5zs4vPhDht-56" value="" style="endArrow=classic;html=1;rounded=0;fontFamily=Times New Roman;fontSize=16;startSize=14;endSize=14;sourcePerimeterSpacing=8;targetPerimeterSpacing=8;exitX=0;exitY=0.5;exitDx=0;exitDy=0;edgeStyle=orthogonalEdgeStyle;entryX=0.5;entryY=0;entryDx=0;entryDy=0;" edge="1" parent="WBxBChpMxb5zs4vPhDht-3" source="WBxBChpMxb5zs4vPhDht-52" target="WBxBChpMxb5zs4vPhDht-54">
          <mxGeometry width="50" height="50" relative="1" as="geometry">
            <mxPoint x="-30" y="352" as="sourcePoint" />
            <mxPoint x="100" y="252" as="targetPoint" />
          </mxGeometry>
        </mxCell>
        <mxCell id="WBxBChpMxb5zs4vPhDht-111" value="" style="rounded=1;whiteSpace=wrap;html=1;fontFamily=Times New Roman;fillColor=#000000;" vertex="1" parent="WBxBChpMxb5zs4vPhDht-3">
          <mxGeometry x="100" y="565" width="140" height="3" as="geometry" />
        </mxCell>
        <mxCell id="WBxBChpMxb5zs4vPhDht-108" value="" style="endArrow=classicThin;html=1;rounded=0;fontFamily=Times New Roman;fontSize=16;startSize=14;endSize=14;sourcePerimeterSpacing=8;targetPerimeterSpacing=8;curved=1;exitX=0.281;exitY=1.05;exitDx=0;exitDy=0;exitPerimeter=0;entryX=0.138;entryY=0.58;entryDx=0;entryDy=0;entryPerimeter=0;endFill=1;" edge="1" parent="WBxBChpMxb5zs4vPhDht-3">
          <mxGeometry width="50" height="50" relative="1" as="geometry">
            <mxPoint x="173.67999999999984" y="534.9000000000001" as="sourcePoint" />
            <mxPoint x="174.32000000000016" y="566.74" as="targetPoint" />
          </mxGeometry>
        </mxCell>
        <mxCell id="WBxBChpMxb5zs4vPhDht-109" value="" style="endArrow=classicThin;html=1;rounded=0;fontFamily=Times New Roman;fontSize=16;startSize=14;endSize=14;sourcePerimeterSpacing=8;targetPerimeterSpacing=8;curved=1;exitX=0.214;exitY=0.487;exitDx=0;exitDy=0;exitPerimeter=0;endFill=1;" edge="1" parent="WBxBChpMxb5zs4vPhDht-3" source="WBxBChpMxb5zs4vPhDht-111">
          <mxGeometry width="50" height="50" relative="1" as="geometry">
            <mxPoint x="-50" y="642" as="sourcePoint" />
            <mxPoint x="130" y="602" as="targetPoint" />
          </mxGeometry>
        </mxCell>
        <mxCell id="WBxBChpMxb5zs4vPhDht-114" value="" style="endArrow=classicThin;html=1;rounded=0;fontFamily=Times New Roman;fontSize=16;startSize=14;endSize=14;sourcePerimeterSpacing=8;targetPerimeterSpacing=8;curved=1;exitX=0.855;exitY=0.5;exitDx=0;exitDy=0;exitPerimeter=0;endFill=1;" edge="1" parent="WBxBChpMxb5zs4vPhDht-3" source="WBxBChpMxb5zs4vPhDht-111">
          <mxGeometry width="50" height="50" relative="1" as="geometry">
            <mxPoint x="140" y="576" as="sourcePoint" />
            <mxPoint x="220" y="602" as="targetPoint" />
          </mxGeometry>
        </mxCell>
        <mxCell id="WBxBChpMxb5zs4vPhDht-9" value="" style="endArrow=classicThin;html=1;rounded=0;fontFamily=Times New Roman;fontSize=16;startSize=14;endSize=14;sourcePerimeterSpacing=8;targetPerimeterSpacing=8;exitX=1;exitY=0.5;exitDx=0;exitDy=0;endFill=1;edgeStyle=orthogonalEdgeStyle;entryX=0.457;entryY=-0.136;entryDx=0;entryDy=0;entryPerimeter=0;" edge="1" parent="1" target="WBxBChpMxb5zs4vPhDht-18">
          <mxGeometry width="50" height="50" relative="1" as="geometry">
            <mxPoint x="-80" y="-120" as="sourcePoint" />
            <mxPoint x="260" y="-30" as="targetPoint" />
            <Array as="points">
              <mxPoint x="-120" y="-120" />
              <mxPoint x="260" y="-119" />
            </Array>
          </mxGeometry>
        </mxCell>
        <mxCell id="WBxBChpMxb5zs4vPhDht-12" value="" style="endArrow=classicThin;html=1;rounded=0;fontFamily=Times New Roman;fontSize=16;startSize=14;endSize=14;sourcePerimeterSpacing=8;targetPerimeterSpacing=8;curved=1;endFill=1;" edge="1" parent="1">
          <mxGeometry width="50" height="50" relative="1" as="geometry">
            <mxPoint x="700" y="-80" as="sourcePoint" />
            <mxPoint x="700" y="-60" as="targetPoint" />
          </mxGeometry>
        </mxCell>
        <mxCell id="WBxBChpMxb5zs4vPhDht-15" value="" style="rhombus;whiteSpace=wrap;html=1;fontFamily=Times New Roman;" vertex="1" parent="1">
          <mxGeometry x="466" y="-55" width="30" height="30" as="geometry" />
        </mxCell>
        <mxCell id="WBxBChpMxb5zs4vPhDht-16" value="" style="endArrow=classicThin;html=1;rounded=0;fontFamily=Times New Roman;fontSize=16;startSize=14;endSize=14;sourcePerimeterSpacing=8;targetPerimeterSpacing=8;endFill=1;edgeStyle=orthogonalEdgeStyle;exitX=0.002;exitY=0.475;exitDx=0;exitDy=0;exitPerimeter=0;" edge="1" parent="1" source="WBxBChpMxb5zs4vPhDht-11">
          <mxGeometry width="50" height="50" relative="1" as="geometry">
            <mxPoint x="636" y="-18.999999999999886" as="sourcePoint" />
            <mxPoint x="496" y="-40" as="targetPoint" />
            <Array as="points" />
          </mxGeometry>
        </mxCell>
        <mxCell id="WBxBChpMxb5zs4vPhDht-19" value="" style="endArrow=classicThin;html=1;rounded=0;fontFamily=Times New Roman;fontSize=16;startSize=14;endSize=14;sourcePerimeterSpacing=8;targetPerimeterSpacing=8;endFill=1;edgeStyle=orthogonalEdgeStyle;exitX=0;exitY=0.5;exitDx=0;exitDy=0;entryX=1;entryY=0.5;entryDx=0;entryDy=0;" edge="1" parent="1" source="WBxBChpMxb5zs4vPhDht-15" target="WBxBChpMxb5zs4vPhDht-18">
          <mxGeometry width="50" height="50" relative="1" as="geometry">
            <mxPoint x="620" y="13" as="sourcePoint" />
            <mxPoint x="420" as="targetPoint" />
            <Array as="points">
              <mxPoint x="420" y="-40" />
            </Array>
          </mxGeometry>
        </mxCell>
        <mxCell id="WBxBChpMxb5zs4vPhDht-33" value="Remplir les informations permettant de trouver une MOJ" style="rounded=1;whiteSpace=wrap;html=1;fontFamily=Times New Roman;" vertex="1" parent="1">
          <mxGeometry x="-281" y="225" width="201" height="40" as="geometry" />
        </mxCell>
        <mxCell id="WBxBChpMxb5zs4vPhDht-40" value="" style="endArrow=classicThin;html=1;rounded=0;fontFamily=Times New Roman;fontSize=16;startSize=14;endSize=14;sourcePerimeterSpacing=8;targetPerimeterSpacing=8;endFill=1;edgeStyle=orthogonalEdgeStyle;exitX=1;exitY=0.5;exitDx=0;exitDy=0;" edge="1" parent="1">
          <mxGeometry width="50" height="50" relative="1" as="geometry">
            <mxPoint x="-60" y="311.33" as="sourcePoint" />
            <mxPoint x="20" y="310" as="targetPoint" />
            <Array as="points">
              <mxPoint x="-60" y="310" />
            </Array>
          </mxGeometry>
        </mxCell>
        <mxCell id="WBxBChpMxb5zs4vPhDht-41" value="" style="endArrow=classicThin;html=1;rounded=0;fontFamily=Times New Roman;fontSize=16;startSize=14;endSize=14;sourcePerimeterSpacing=8;targetPerimeterSpacing=8;endFill=1;edgeStyle=orthogonalEdgeStyle;exitX=0.538;exitY=1.004;exitDx=0;exitDy=0;exitPerimeter=0;" edge="1" parent="1" source="WBxBChpMxb5zs4vPhDht-25" target="WBxBChpMxb5zs4vPhDht-46">
          <mxGeometry width="50" height="50" relative="1" as="geometry">
            <mxPoint x="129" y="590" as="sourcePoint" />
            <mxPoint x="-90" y="625" as="targetPoint" />
            <Array as="points">
              <mxPoint x="-251" y="355" />
              <mxPoint x="40" y="355" />
            </Array>
          </mxGeometry>
        </mxCell>
        <mxCell id="WBxBChpMxb5zs4vPhDht-46" value="" style="rhombus;whiteSpace=wrap;html=1;fontFamily=Times New Roman;" vertex="1" parent="1">
          <mxGeometry x="25" y="296" width="30" height="30" as="geometry" />
        </mxCell>
        <mxCell id="WBxBChpMxb5zs4vPhDht-48" value="" style="endArrow=classicThin;html=1;rounded=0;fontFamily=Times New Roman;fontSize=16;startSize=14;endSize=14;sourcePerimeterSpacing=8;targetPerimeterSpacing=8;exitX=1;exitY=0.5;exitDx=0;exitDy=0;endFill=1;entryX=0.5;entryY=0;entryDx=0;entryDy=0;edgeStyle=orthogonalEdgeStyle;" edge="1" parent="1" source="WBxBChpMxb5zs4vPhDht-46" target="WBxBChpMxb5zs4vPhDht-65">
          <mxGeometry width="50" height="50" relative="1" as="geometry">
            <mxPoint x="200" y="420" as="sourcePoint" />
            <mxPoint x="260" y="310" as="targetPoint" />
          </mxGeometry>
        </mxCell>
        <mxCell id="WBxBChpMxb5zs4vPhDht-53" value="" style="endArrow=classicThin;html=1;rounded=0;fontFamily=Times New Roman;fontSize=16;startSize=14;endSize=14;sourcePerimeterSpacing=8;targetPerimeterSpacing=8;curved=1;endFill=1;" edge="1" parent="1">
          <mxGeometry width="50" height="50" relative="1" as="geometry">
            <mxPoint x="701" y="-18" as="sourcePoint" />
            <mxPoint x="701" y="20" as="targetPoint" />
          </mxGeometry>
        </mxCell>
        <mxCell id="WBxBChpMxb5zs4vPhDht-70" value="" style="endArrow=classicThin;html=1;rounded=0;fontFamily=Times New Roman;fontSize=16;startSize=14;endSize=14;sourcePerimeterSpacing=8;targetPerimeterSpacing=8;exitX=0.5;exitY=1;exitDx=0;exitDy=0;entryX=1;entryY=0.25;entryDx=0;entryDy=0;edgeStyle=orthogonalEdgeStyle;endFill=1;strokeColor=#000000;" edge="1" parent="1" source="WBxBChpMxb5zs4vPhDht-69" target="WBxBChpMxb5zs4vPhDht-59">
          <mxGeometry width="50" height="50" relative="1" as="geometry">
            <mxPoint x="280" y="280" as="sourcePoint" />
            <mxPoint x="330" y="230" as="targetPoint" />
            <Array as="points">
              <mxPoint x="780" y="107" />
              <mxPoint x="560" y="107" />
            </Array>
          </mxGeometry>
        </mxCell>
        <mxCell id="WBxBChpMxb5zs4vPhDht-71" value="" style="endArrow=classicThin;html=1;rounded=0;fontFamily=Times New Roman;fontSize=16;startSize=14;endSize=14;sourcePerimeterSpacing=8;targetPerimeterSpacing=8;exitX=0.5;exitY=1;exitDx=0;exitDy=0;entryX=-0.013;entryY=0.135;entryDx=0;entryDy=0;edgeStyle=orthogonalEdgeStyle;entryPerimeter=0;endFill=1;" edge="1" parent="1" source="WBxBChpMxb5zs4vPhDht-37" target="WBxBChpMxb5zs4vPhDht-32">
          <mxGeometry width="50" height="50" relative="1" as="geometry">
            <mxPoint x="300" y="240" as="sourcePoint" />
            <mxPoint x="370" y="270" as="targetPoint" />
            <Array as="points">
              <mxPoint x="-266" y="200" />
              <mxPoint x="153" y="200" />
            </Array>
          </mxGeometry>
        </mxCell>
        <mxCell id="WBxBChpMxb5zs4vPhDht-72" value="" style="endArrow=classicThin;html=1;rounded=0;fontFamily=Times New Roman;fontSize=16;startSize=14;endSize=14;sourcePerimeterSpacing=8;targetPerimeterSpacing=8;entryX=0.573;entryY=1.007;entryDx=0;entryDy=0;edgeStyle=orthogonalEdgeStyle;endFill=1;entryPerimeter=0;" edge="1" parent="1" target="WBxBChpMxb5zs4vPhDht-58">
          <mxGeometry width="50" height="50" relative="1" as="geometry">
            <mxPoint x="600" y="100" as="sourcePoint" />
            <mxPoint x="362" y="254" as="targetPoint" />
            <Array as="points">
              <mxPoint x="600" y="160" />
              <mxPoint x="201" y="160" />
            </Array>
          </mxGeometry>
        </mxCell>
        <mxCell id="WBxBChpMxb5zs4vPhDht-73" value="" style="endArrow=classicThin;html=1;rounded=0;fontFamily=Times New Roman;fontSize=16;startSize=14;endSize=14;sourcePerimeterSpacing=8;targetPerimeterSpacing=8;exitX=1;exitY=0.5;exitDx=0;exitDy=0;entryX=1;entryY=0.75;entryDx=0;entryDy=0;edgeStyle=orthogonalEdgeStyle;endFill=1;strokeColor=#FF3333;" edge="1" parent="1" source="WBxBChpMxb5zs4vPhDht-50" target="WBxBChpMxb5zs4vPhDht-59">
          <mxGeometry width="50" height="50" relative="1" as="geometry">
            <mxPoint x="380" y="320" as="sourcePoint" />
            <mxPoint x="430" y="270" as="targetPoint" />
            <Array as="points">
              <mxPoint x="840" y="440" />
              <mxPoint x="860" y="440" />
              <mxPoint x="860" y="126" />
              <mxPoint x="430" y="126" />
            </Array>
          </mxGeometry>
        </mxCell>
        <mxCell id="WBxBChpMxb5zs4vPhDht-76" value="" style="endArrow=classicThin;html=1;rounded=0;fontFamily=Times New Roman;fontSize=16;startSize=14;endSize=14;sourcePerimeterSpacing=8;targetPerimeterSpacing=8;exitX=0;exitY=0.5;exitDx=0;exitDy=0;entryX=1;entryY=0.5;entryDx=0;entryDy=0;edgeStyle=orthogonalEdgeStyle;endFill=1;" edge="1" parent="1" source="WBxBChpMxb5zs4vPhDht-18" target="WBxBChpMxb5zs4vPhDht-24">
          <mxGeometry width="50" height="50" relative="1" as="geometry">
            <mxPoint x="240" y="260" as="sourcePoint" />
            <mxPoint x="290" y="210" as="targetPoint" />
            <Array as="points">
              <mxPoint x="40" y="-40" />
              <mxPoint x="40" y="60" />
            </Array>
          </mxGeometry>
        </mxCell>
        <mxCell id="WBxBChpMxb5zs4vPhDht-103" value="" style="endArrow=classicThin;html=1;rounded=0;fontFamily=Times New Roman;fontSize=16;startSize=14;endSize=14;sourcePerimeterSpacing=8;targetPerimeterSpacing=8;exitX=0;exitY=0.25;exitDx=0;exitDy=0;entryX=0.5;entryY=0;entryDx=0;entryDy=0;edgeStyle=orthogonalEdgeStyle;endFill=1;" edge="1" parent="1" source="WBxBChpMxb5zs4vPhDht-10" target="WBxBChpMxb5zs4vPhDht-15">
          <mxGeometry width="50" height="50" relative="1" as="geometry">
            <mxPoint x="230" y="420" as="sourcePoint" />
            <mxPoint x="280" y="370" as="targetPoint" />
          </mxGeometry>
        </mxCell>
        <mxCell id="WBxBChpMxb5zs4vPhDht-105" value="" style="endArrow=classicThin;html=1;rounded=0;fontFamily=Times New Roman;fontSize=16;startSize=14;endSize=14;sourcePerimeterSpacing=8;targetPerimeterSpacing=8;curved=1;exitX=0;exitY=0.75;exitDx=0;exitDy=0;endFill=1;entryX=1.003;entryY=0.111;entryDx=0;entryDy=0;entryPerimeter=0;" edge="1" parent="1" source="WBxBChpMxb5zs4vPhDht-32" target="WBxBChpMxb5zs4vPhDht-33">
          <mxGeometry width="50" height="50" relative="1" as="geometry">
            <mxPoint x="350" y="360" as="sourcePoint" />
            <mxPoint x="-70" y="229" as="targetPoint" />
          </mxGeometry>
        </mxCell>
        <mxCell id="WBxBChpMxb5zs4vPhDht-66" value="" style="rhombus;whiteSpace=wrap;html=1;fontFamily=Times New Roman;" vertex="1" parent="1">
          <mxGeometry x="467" y="401" width="30" height="30" as="geometry" />
        </mxCell>
        <mxCell id="WBxBChpMxb5zs4vPhDht-115" value="" style="endArrow=classicThin;html=1;rounded=0;fontFamily=Times New Roman;fontSize=16;startSize=14;endSize=14;sourcePerimeterSpacing=8;targetPerimeterSpacing=8;entryX=0.5;entryY=1;entryDx=0;entryDy=0;edgeStyle=orthogonalEdgeStyle;endFill=1;strokeColor=#FF0000;" edge="1" parent="1" target="WBxBChpMxb5zs4vPhDht-66">
          <mxGeometry width="50" height="50" relative="1" as="geometry">
            <mxPoint x="761" y="460" as="sourcePoint" />
            <mxPoint x="210" y="230" as="targetPoint" />
            <Array as="points">
              <mxPoint x="761" y="470" />
              <mxPoint x="482" y="470" />
            </Array>
          </mxGeometry>
        </mxCell>
        <mxCell id="WBxBChpMxb5zs4vPhDht-116" value="" style="endArrow=classicThin;html=1;rounded=0;fontFamily=Times New Roman;fontSize=16;startSize=14;endSize=14;sourcePerimeterSpacing=8;targetPerimeterSpacing=8;entryX=0.5;entryY=0;entryDx=0;entryDy=0;edgeStyle=orthogonalEdgeStyle;endFill=1;" edge="1" parent="1" target="WBxBChpMxb5zs4vPhDht-66">
          <mxGeometry width="50" height="50" relative="1" as="geometry">
            <mxPoint x="600" y="420" as="sourcePoint" />
            <mxPoint x="540" y="390" as="targetPoint" />
            <Array as="points">
              <mxPoint x="600" y="380" />
              <mxPoint x="482" y="380" />
            </Array>
          </mxGeometry>
        </mxCell>
        <mxCell id="WBxBChpMxb5zs4vPhDht-117" value="" style="endArrow=classic;html=1;rounded=0;fontFamily=Times New Roman;fontSize=16;startSize=14;endSize=14;sourcePerimeterSpacing=8;targetPerimeterSpacing=8;exitX=0;exitY=0.5;exitDx=0;exitDy=0;entryX=0.5;entryY=1;entryDx=0;entryDy=0;edgeStyle=orthogonalEdgeStyle;" edge="1" parent="1" source="WBxBChpMxb5zs4vPhDht-66" target="WBxBChpMxb5zs4vPhDht-65">
          <mxGeometry width="50" height="50" relative="1" as="geometry">
            <mxPoint x="500" y="450" as="sourcePoint" />
            <mxPoint x="550" y="400" as="targetPoint" />
          </mxGeometry>
        </mxCell>
        <mxCell id="WBxBChpMxb5zs4vPhDht-125" value="" style="endArrow=classicThin;html=1;rounded=0;fontFamily=Times New Roman;fontSize=16;startSize=14;endSize=14;sourcePerimeterSpacing=8;targetPerimeterSpacing=8;exitX=1;exitY=0.5;exitDx=0;exitDy=0;edgeStyle=orthogonalEdgeStyle;endFill=1;entryX=0.201;entryY=0.106;entryDx=0;entryDy=0;entryPerimeter=0;" edge="1" parent="1">
          <mxGeometry width="50" height="50" relative="1" as="geometry">
            <mxPoint x="-79.00000000000023" y="418.5" as="sourcePoint" />
            <mxPoint x="199.90099999999984" y="444.98199999999997" as="targetPoint" />
            <Array as="points">
              <mxPoint x="200" y="418" />
            </Array>
          </mxGeometry>
        </mxCell>
        <mxCell id="WBxBChpMxb5zs4vPhDht-126" value="" style="endArrow=classicThin;html=1;rounded=0;fontFamily=Times New Roman;fontSize=16;startSize=14;endSize=14;sourcePerimeterSpacing=8;targetPerimeterSpacing=8;exitX=0.947;exitY=1.001;exitDx=0;exitDy=0;edgeStyle=orthogonalEdgeStyle;exitPerimeter=0;endFill=1;entryX=0;entryY=0.25;entryDx=0;entryDy=0;" edge="1" parent="1" source="WBxBChpMxb5zs4vPhDht-121" target="WBxBChpMxb5zs4vPhDht-122">
          <mxGeometry width="50" height="50" relative="1" as="geometry">
            <mxPoint x="120" y="500" as="sourcePoint" />
            <mxPoint x="140" y="462" as="targetPoint" />
            <Array as="points">
              <mxPoint x="-90" y="459" />
              <mxPoint x="130" y="459" />
            </Array>
          </mxGeometry>
        </mxCell>
        <mxCell id="WBxBChpMxb5zs4vPhDht-131" value="" style="endArrow=classicThin;html=1;rounded=0;fontFamily=Times New Roman;fontSize=16;startSize=14;endSize=14;sourcePerimeterSpacing=8;targetPerimeterSpacing=8;curved=1;entryX=-0.016;entryY=0.059;entryDx=0;entryDy=0;entryPerimeter=0;endFill=1;" edge="1" parent="1" target="WBxBChpMxb5zs4vPhDht-127">
          <mxGeometry width="50" height="50" relative="1" as="geometry">
            <mxPoint x="-80" y="520" as="sourcePoint" />
            <mxPoint x="30" y="490" as="targetPoint" />
          </mxGeometry>
        </mxCell>
        <mxCell id="WBxBChpMxb5zs4vPhDht-133" value="" style="endArrow=classicThin;html=1;rounded=0;fontFamily=Times New Roman;fontSize=16;startSize=14;endSize=14;sourcePerimeterSpacing=8;targetPerimeterSpacing=8;exitX=1;exitY=0.5;exitDx=0;exitDy=0;entryX=0.5;entryY=0;entryDx=0;entryDy=0;edgeStyle=orthogonalEdgeStyle;endFill=1;" edge="1" parent="1" source="WBxBChpMxb5zs4vPhDht-38" target="WBxBChpMxb5zs4vPhDht-46">
          <mxGeometry width="50" height="50" relative="1" as="geometry">
            <mxPoint x="80" y="160" as="sourcePoint" />
            <mxPoint x="130" y="110" as="targetPoint" />
          </mxGeometry>
        </mxCell>
        <mxCell id="WBxBChpMxb5zs4vPhDht-134" value="" style="endArrow=classicThin;html=1;rounded=0;fontFamily=Times New Roman;fontSize=16;startSize=14;endSize=14;sourcePerimeterSpacing=8;targetPerimeterSpacing=8;curved=1;endFill=1;" edge="1" parent="1">
          <mxGeometry width="50" height="50" relative="1" as="geometry">
            <mxPoint x="160" y="490" as="sourcePoint" />
            <mxPoint x="-80" y="490" as="targetPoint" />
          </mxGeometry>
        </mxCell>
      </root>
    </mxGraphModel>
  </diagram>
</mxfile>
